<?xml version="1.0" encoding="utf-8"?>
<!-- Generator: Adobe Illustrator 17.1.0, SVG Export Plug-In . SVG Version: 6.00 Build 0)  -->
<!DOCTYPE svg PUBLIC "-//W3C//DTD SVG 1.1//EN" "http://www.w3.org/Graphics/SVG/1.1/DTD/svg11.dtd">
<svg version="1.1" id="Layer_1" xmlns="http://www.w3.org/2000/svg" xmlns:xlink="http://www.w3.org/1999/xlink" x="0px" y="0px"
	 viewBox="0 0 25 25" enable-background="new 0 0 25 25" xml:space="preserve">
<g display="none">
	<path display="inline" fill="#FFFFFF" d="M20.2,25H4.8c-0.7,0-1.3-0.6-1.3-1.3V1.3C3.5,0.6,4.1,0,4.8,0h15.5c0.7,0,1.3,0.6,1.3,1.3
		v22.4C21.5,24.4,20.9,25,20.2,25z"/>
	<g display="inline">
		<ellipse fill="#ED7023" cx="7" cy="3.3" rx="0.9" ry="0.9"/>
		<line fill="none" stroke="#ED7023" stroke-miterlimit="10" x1="9" y1="3.5" x2="20" y2="3.5"/>
	</g>
	<g display="inline">
		<ellipse fill="#ED7023" cx="7" cy="7.3" rx="0.9" ry="0.9"/>
		<line fill="none" stroke="#ED7023" stroke-miterlimit="10" x1="9" y1="7.5" x2="20" y2="7.5"/>
	</g>
	<g display="inline">
		<ellipse fill="#ED7023" cx="7" cy="11.4" rx="0.9" ry="0.9"/>
		<line fill="none" stroke="#ED7023" stroke-miterlimit="10" x1="9" y1="11.5" x2="20" y2="11.5"/>
	</g>
</g>
<g display="none">
	<path display="inline" fill="#FFFFFF" stroke="#077AB5" stroke-miterlimit="10" d="M12.5,13.7c-5.7,0-10,1.9-10,4.2v2.9
		c0,2.3,4.3,4.2,10,4.2c5.7,0,10-1.9,10-4.2v-2.9C22.5,15.6,18.2,13.7,12.5,13.7z"/>
	<path display="inline" fill="#FFFFFF" stroke="#077AB5" stroke-miterlimit="10" d="M12.5,6.9c-5.7,0-10,1.9-10,4.2V14
		c0,2.3,4.3,4.2,10,4.2c5.7,0,10-1.9,10-4.2V11C22.5,8.7,18.2,6.9,12.5,6.9z"/>
	<path display="inline" fill="#FFFFFF" stroke="#077AB5" stroke-miterlimit="10" d="M12.5,0c-5.7,0-10,1.9-10,4.2v2.9
		c0,2.3,4.3,4.2,10,4.2c5.7,0,10-1.9,10-4.2V4.2C22.5,1.9,18.2,0,12.5,0z"/>
	<path display="inline" fill="#FFFFFF" stroke="#077AB5" stroke-linecap="round" stroke-miterlimit="10" d="M20.4,4.7
		c-1.7,1-4.5,1.7-7.7,1.7c-3.1,0-5.9-0.6-7.5-1.6"/>
</g>
<g display="none">
	<path display="inline" fill="none" stroke="#FFFFFF" stroke-width="2" stroke-miterlimit="10" d="M24,22.5H3.6
		c-1.5,0-2.6-1.2-2.6-2.8V2.5"/>
	<g display="inline">
		<path fill="#FFFFFF" d="M7.6,12.7H4c-0.3,0-0.5,0.2-0.5,0.5v6.6c0,0.3,0.2,0.5,0.5,0.5h3.6c0.3,0,0.5-0.2,0.5-0.5v-6.6
			C8.1,12.9,7.9,12.7,7.6,12.7z"/>
		<path fill="#FFFFFF" d="M14.3,8.6h-3.6c-0.3,0-0.5,0.2-0.5,0.5v10.7c0,0.3,0.2,0.5,0.5,0.5h3.6c0.3,0,0.5-0.2,0.5-0.5V9.1
			C14.8,8.8,14.6,8.6,14.3,8.6z"/>
		<path fill="#FFFFFF" d="M21,4.8h-3.6c-0.3,0-0.5,0.2-0.5,0.5v14.5c0,0.3,0.2,0.5,0.5,0.5H21c0.3,0,0.5-0.2,0.5-0.5V5.2
			C21.5,5,21.3,4.8,21,4.8z"/>
	</g>
</g>
<g display="none">
	<path display="inline" fill="none" stroke="#FFFFFF" stroke-width="2" stroke-miterlimit="10" d="M24,22.5H3.6
		c-1.5,0-2.6-1.2-2.6-2.8V2.5"/>
	<g display="inline">
		<ellipse fill="#FFFFFF" cx="6.4" cy="13.2" rx="1.6" ry="1.7"/>
		<path fill="#FFFFFF" d="M12.6,18.1c-0.9,0.9-2.3,0.9-3.2,0c-0.9-0.9-0.9-2.5,0-3.4c0.9-0.9,2.3-0.9,3.2,0
			C13.5,15.6,13.5,17.1,12.6,18.1z"/>
		<path fill="#FFFFFF" d="M16.6,13.6c-0.8,0.9-2.2,0.9-3,0c-0.8-0.9-0.8-2.3,0-3.2s2.2-0.9,3,0S17.5,12.7,16.6,13.6z"/>
		<path fill="#FFFFFF" d="M19.5,9.7c-0.6,0.6-1.6,0.6-2.2,0s-0.6-1.7,0-2.3s1.6-0.6,2.2,0S20.1,9.1,19.5,9.7z"/>
		<path fill="#FFFFFF" d="M22.2,5.9c-0.4,0.4-1,0.4-1.3,0s-0.4-1,0-1.4c0.4-0.4,1-0.4,1.3,0C22.6,4.9,22.6,5.5,22.2,5.9z"/>
	</g>
</g>
<g display="none">
	<path display="inline" fill="#FFFFFF" d="M10.1,11.1H2.2c-0.5,0-0.9-0.4-0.9-0.9V2.3c0-0.5,0.4-0.9,0.9-0.9h7.9
		c0.5,0,0.9,0.4,0.9,0.9v7.9C11,10.7,10.6,11.1,10.1,11.1z"/>
	<g display="inline">
		<path fill="#FFFFFF" d="M21.7,3.4v5.7H16V3.4H21.7 M22.8,1.4h-7.9c-0.5,0-0.9,0.4-0.9,0.9v7.9c0,0.5,0.4,0.9,0.9,0.9h7.9
			c0.5,0,0.9-0.4,0.9-0.9V2.3C23.7,1.8,23.3,1.4,22.8,1.4L22.8,1.4z"/>
	</g>
	<path display="inline" fill="#FFFFFF" d="M10.1,23.6H2.2c-0.5,0-0.9-0.4-0.9-0.9v-7.9c0-0.5,0.4-0.9,0.9-0.9h7.9
		c0.5,0,0.9,0.4,0.9,0.9v7.9C11,23.2,10.6,23.6,10.1,23.6z"/>
	<path display="inline" fill="#FFFFFF" d="M22.8,23.6h-7.9c-0.5,0-0.9-0.4-0.9-0.9v-7.9c0-0.5,0.4-0.9,0.9-0.9h7.9
		c0.5,0,0.9,0.4,0.9,0.9v7.9C23.7,23.2,23.3,23.6,22.8,23.6z"/>
</g>
<path display="none" fill="#C4D82E" d="M19.6,8L14,0.8c0,0-1.5-1.9-3,0L5.4,8c0,0-1.5,2,1.1,2H8v14.9c5,0,9-3.7,9-8.3V10h1.5
	C18.5,10,21,9.8,19.6,8z"/>
<g display="none">
	<path display="inline" fill="#B4B4B4" d="M11,24.2c0,0,1.5,1.9,3,0l5.6-7c0,0,1.5-1.9-1.1-1.9h-12c0,0-2.6,0-1.1,1.9L11,24.2z"/>
	<path display="inline" fill="#B4B4B4" d="M16.7,0L16.7,0l0,18.2H8.3V8.3C8.3,3.7,12.1,0,16.7,0z"/>
</g>
<path fill="#077AB5" d="M23.9,19.3L23.8,19c-0.3-0.8-1.2-1.6-2-1.9l-3-0.8c-0.8-0.2-2,0.1-2.6,0.7l-1.1,1.1c-4-1.1-7.1-4.2-8.2-8.2
	L8,8.8C8.6,8.2,8.9,7,8.7,6.2l-0.8-3C7.7,2.4,6.8,1.5,6,1.2L5.7,1.1c-0.8-0.3-2,0-2.6,0.6L1.5,3.3C1.2,3.6,1,4.5,1,4.5
	C0.9,9.7,3,14.7,6.7,18.3C10.3,22,15.3,24,20.5,24c0,0,0.9-0.2,1.2-0.5l1.6-1.6C23.9,21.3,24.2,20.1,23.9,19.3z"/>
</svg>
