<?xml version="1.0" encoding="utf-8"?>
<!-- Generator: Adobe Illustrator 17.1.0, SVG Export Plug-In . SVG Version: 6.00 Build 0)  -->
<!DOCTYPE svg PUBLIC "-//W3C//DTD SVG 1.1//EN" "http://www.w3.org/Graphics/SVG/1.1/DTD/svg11.dtd">
<svg version="1.1" id="Layer_1" xmlns="http://www.w3.org/2000/svg" xmlns:xlink="http://www.w3.org/1999/xlink" x="0px" y="0px"
	 viewBox="0 0 25 25" enable-background="new 0 0 25 25" xml:space="preserve">
<g display="none">
	<path display="inline" fill="#FFFFFF" d="M20.2,25H4.8c-0.7,0-1.3-0.6-1.3-1.3V1.3C3.5,0.6,4.1,0,4.8,0h15.5c0.7,0,1.3,0.6,1.3,1.3
		v22.4C21.5,24.4,20.9,25,20.2,25z"/>
	<g display="inline">
		<ellipse fill="#ED7023" cx="7" cy="3.3" rx="0.9" ry="0.9"/>
		<line fill="none" stroke="#ED7023" stroke-miterlimit="10" x1="9" y1="3.5" x2="20" y2="3.5"/>
	</g>
	<g display="inline">
		<ellipse fill="#ED7023" cx="7" cy="7.3" rx="0.9" ry="0.9"/>
		<line fill="none" stroke="#ED7023" stroke-miterlimit="10" x1="9" y1="7.5" x2="20" y2="7.5"/>
	</g>
	<g display="inline">
		<ellipse fill="#ED7023" cx="7" cy="11.4" rx="0.9" ry="0.9"/>
		<line fill="none" stroke="#ED7023" stroke-miterlimit="10" x1="9" y1="11.5" x2="20" y2="11.5"/>
	</g>
</g>
<g display="none">
	<path display="inline" fill="#FFFFFF" stroke="#077AB5" stroke-miterlimit="10" d="M12.5,13.7c-5.7,0-10,1.9-10,4.2v2.9
		c0,2.3,4.3,4.2,10,4.2c5.7,0,10-1.9,10-4.2v-2.9C22.5,15.6,18.2,13.7,12.5,13.7z"/>
	<path display="inline" fill="#FFFFFF" stroke="#077AB5" stroke-miterlimit="10" d="M12.5,6.9c-5.7,0-10,1.9-10,4.2V14
		c0,2.3,4.3,4.2,10,4.2c5.7,0,10-1.9,10-4.2V11C22.5,8.7,18.2,6.9,12.5,6.9z"/>
	<path display="inline" fill="#FFFFFF" stroke="#077AB5" stroke-miterlimit="10" d="M12.5,0c-5.7,0-10,1.9-10,4.2v2.9
		c0,2.3,4.3,4.2,10,4.2c5.7,0,10-1.9,10-4.2V4.2C22.5,1.9,18.2,0,12.5,0z"/>
	<path display="inline" fill="#FFFFFF" stroke="#077AB5" stroke-linecap="round" stroke-miterlimit="10" d="M20.4,4.7
		c-1.7,1-4.5,1.7-7.7,1.7c-3.1,0-5.9-0.6-7.5-1.6"/>
</g>
<g>
	<path fill="none" stroke="#FFFFFF" stroke-width="2" stroke-miterlimit="10" d="M24,22.5H3.6c-1.5,0-2.6-1.2-2.6-2.8V2.5"/>
	<g>
		<path fill="#FFFFFF" d="M7.6,12.7H4c-0.3,0-0.5,0.2-0.5,0.5v6.6c0,0.3,0.2,0.5,0.5,0.5h3.6c0.3,0,0.5-0.2,0.5-0.5v-6.6
			C8.1,12.9,7.9,12.7,7.6,12.7z"/>
		<path fill="#FFFFFF" d="M14.3,8.6h-3.6c-0.3,0-0.5,0.2-0.5,0.5v10.7c0,0.3,0.2,0.5,0.5,0.5h3.6c0.3,0,0.5-0.2,0.5-0.5V9.1
			C14.8,8.8,14.6,8.6,14.3,8.6z"/>
		<path fill="#FFFFFF" d="M21,4.8h-3.6c-0.3,0-0.5,0.2-0.5,0.5v14.5c0,0.3,0.2,0.5,0.5,0.5H21c0.3,0,0.5-0.2,0.5-0.5V5.2
			C21.5,5,21.3,4.8,21,4.8z"/>
	</g>
</g>
</svg>
